<svg xmlns="http://www.w3.org/2000/svg" xmlns:xlink="http://www.w3.org/1999/xlink" contentStyleType="text/css" data-diagram-type="DESCRIPTION" height="727px" preserveAspectRatio="none" style="width:1807px;height:727px;background:#FFFFFF;" version="1.1" viewBox="0 0 1807 727" width="1807px" zoomAndPan="magnify"><title>Deployment diagram - AIR-AWARE System</title><defs/><g><g class="title" data-source-line="1"><text fill="#000000" font-family="sans-serif" font-size="14" font-weight="bold" lengthAdjust="spacing" textLength="334.3662" x="729.3169" y="22.9951">Deployment diagram - AIR-AWARE System</text></g><!--cluster iot--><g class="cluster" data-entity="iot" data-source-line="4" data-uid="ent0002" id="cluster_iot"><polygon fill="none" points="16,53.2969,26,43.2969,493,43.2969,493,366.2969,483,376.2969,16,376.2969,16,53.2969" style="stroke:#181818;stroke-width:1;"/><line style="stroke:#181818;stroke-width:1;" x1="483" x2="493" y1="53.2969" y2="43.2969"/><line style="stroke:#181818;stroke-width:1;" x1="16" x2="483" y1="53.2969" y2="53.2969"/><line style="stroke:#181818;stroke-width:1;" x1="483" x2="483" y1="53.2969" y2="376.2969"/><text fill="#000000" font-family="sans-serif" font-size="14" font-weight="bold" lengthAdjust="spacing" textLength="264.9746" x="118.0127" y="69.292">IoT Device (Raspberry Pi / ESP32)</text></g><!--cluster cloud--><g class="cluster" data-entity="cloud" data-source-line="12" data-uid="ent0007" id="cluster_cloud"><polygon fill="none" points="533,211.2969,543,201.2969,1169,201.2969,1169,700.2969,1159,710.2969,533,710.2969,533,211.2969" style="stroke:#181818;stroke-width:1;"/><line style="stroke:#181818;stroke-width:1;" x1="1159" x2="1169" y1="211.2969" y2="201.2969"/><line style="stroke:#181818;stroke-width:1;" x1="533" x2="1159" y1="211.2969" y2="211.2969"/><line style="stroke:#181818;stroke-width:1;" x1="1159" x2="1159" y1="211.2969" y2="710.2969"/><text fill="#000000" font-family="sans-serif" font-size="14" font-weight="bold" lengthAdjust="spacing" textLength="101.5615" x="796.2192" y="227.292">Cloud Server</text></g><!--cluster middleware--><g class="cluster" data-entity="middleware" data-source-line="13" data-uid="ent0008" id="cluster_middleware"><polygon fill="none" points="620,275.2969,630,265.2969,1084,265.2969,1084,366.2969,1074,376.2969,620,376.2969,620,275.2969" style="stroke:#181818;stroke-width:1;"/><line style="stroke:#181818;stroke-width:1;" x1="1074" x2="1084" y1="275.2969" y2="265.2969"/><line style="stroke:#181818;stroke-width:1;" x1="620" x2="1074" y1="275.2969" y2="275.2969"/><line style="stroke:#181818;stroke-width:1;" x1="1074" x2="1074" y1="275.2969" y2="376.2969"/><text fill="#000000" font-family="sans-serif" font-size="14" font-weight="bold" lengthAdjust="spacing" textLength="168.0684" x="763.9658" y="291.292">Middleware (WildFly)</text></g><!--cluster backend--><g class="cluster" data-entity="backend" data-source-line="18" data-uid="ent0011" id="cluster_backend"><polygon fill="none" points="573,451.2969,583,441.2969,1121,441.2969,1121,660.2969,1111,670.2969,573,670.2969,573,451.2969" style="stroke:#181818;stroke-width:1;"/><line style="stroke:#181818;stroke-width:1;" x1="1111" x2="1121" y1="451.2969" y2="441.2969"/><line style="stroke:#181818;stroke-width:1;" x1="573" x2="1111" y1="451.2969" y2="451.2969"/><line style="stroke:#181818;stroke-width:1;" x1="1111" x2="1111" y1="451.2969" y2="670.2969"/><text fill="#000000" font-family="sans-serif" font-size="14" font-weight="bold" lengthAdjust="spacing" textLength="138.6191" x="773.6904" y="467.292">Backend Services</text></g><!--cluster user--><g class="cluster" data-entity="user" data-source-line="27" data-uid="ent0016" id="cluster_user"><polygon fill="none" points="1276,451.2969,1286,441.2969,1790,441.2969,1790,542.2969,1780,552.2969,1276,552.2969,1276,451.2969" style="stroke:#181818;stroke-width:1;"/><line style="stroke:#181818;stroke-width:1;" x1="1780" x2="1790" y1="451.2969" y2="441.2969"/><line style="stroke:#181818;stroke-width:1;" x1="1276" x2="1780" y1="451.2969" y2="451.2969"/><line style="stroke:#181818;stroke-width:1;" x1="1780" x2="1780" y1="451.2969" y2="552.2969"/><text fill="#000000" font-family="sans-serif" font-size="14" font-weight="bold" lengthAdjust="spacing" textLength="243.6602" x="1407.1699" y="467.292">User Device (PC / Smartphone)</text></g><!--entity bme--><g class="entity" data-entity="bme" data-source-line="5" data-uid="ent0003" id="entity_bme"><rect fill="#F1F1F1" height="39.2969" rx="2.5" ry="2.5" style="stroke:#181818;stroke-width:0.5;" width="139.6895" x="44" y="91.2969"/><polygon fill="#F1F1F1" points="166.6895,96.2969,166.6895,110.2969,178.6895,110.2969,178.6895,102.2969,172.6895,96.2969,166.6895,96.2969" style="stroke:#181818;stroke-width:0.5;"/><line style="stroke:#181818;stroke-width:0.5;" x1="172.6895" x2="172.6895" y1="96.2969" y2="102.2969"/><line style="stroke:#181818;stroke-width:0.5;" x1="178.6895" x2="172.6895" y1="102.2969" y2="102.2969"/><text fill="#000000" font-family="sans-serif" font-size="14" lengthAdjust="spacing" textLength="109.6895" x="54" y="117.292">BME680 Sensor</text></g><!--entity sgp--><g class="entity" data-entity="sgp" data-source-line="6" data-uid="ent0004" id="entity_sgp"><rect fill="#F1F1F1" height="39.2969" rx="2.5" ry="2.5" style="stroke:#181818;stroke-width:0.5;" width="128.4307" x="219" y="91.2969"/><polygon fill="#F1F1F1" points="330.4307,96.2969,330.4307,110.2969,342.4307,110.2969,342.4307,102.2969,336.4307,96.2969,330.4307,96.2969" style="stroke:#181818;stroke-width:0.5;"/><line style="stroke:#181818;stroke-width:0.5;" x1="336.4307" x2="336.4307" y1="96.2969" y2="102.2969"/><line style="stroke:#181818;stroke-width:0.5;" x1="342.4307" x2="336.4307" y1="102.2969" y2="102.2969"/><text fill="#000000" font-family="sans-serif" font-size="14" lengthAdjust="spacing" textLength="98.4307" x="229" y="117.292">SGP30 Sensor</text></g><!--entity pm--><g class="entity" data-entity="pm" data-source-line="7" data-uid="ent0005" id="entity_pm"><rect fill="#F1F1F1" height="39.2969" rx="2.5" ry="2.5" style="stroke:#181818;stroke-width:0.5;" width="147.4756" x="40.5" y="313.2969"/><polygon fill="#F1F1F1" points="170.9756,318.2969,170.9756,332.2969,182.9756,332.2969,182.9756,324.2969,176.9756,318.2969,170.9756,318.2969" style="stroke:#181818;stroke-width:0.5;"/><line style="stroke:#181818;stroke-width:0.5;" x1="176.9756" x2="176.9756" y1="318.2969" y2="324.2969"/><line style="stroke:#181818;stroke-width:0.5;" x1="182.9756" x2="176.9756" y1="324.2969" y2="324.2969"/><text fill="#000000" font-family="sans-serif" font-size="14" lengthAdjust="spacing" textLength="117.4756" x="50.5" y="339.292">PMS5003 Sensor</text></g><!--entity Data Collector Script (Python)--><g class="entity" data-entity="Data Collector Script (Python)" data-source-line="8" data-uid="ent0006" id="entity_Data Collector Script (Python)"><rect fill="#F1F1F1" height="39.2969" rx="2.5" ry="2.5" style="stroke:#181818;stroke-width:0.5;" width="239.0771" x="222.5" y="313.2969"/><polygon fill="#F1F1F1" points="444.5771,318.2969,444.5771,332.2969,456.5771,332.2969,456.5771,324.2969,450.5771,318.2969,444.5771,318.2969" style="stroke:#181818;stroke-width:0.5;"/><line style="stroke:#181818;stroke-width:0.5;" x1="450.5771" x2="450.5771" y1="318.2969" y2="324.2969"/><line style="stroke:#181818;stroke-width:0.5;" x1="456.5771" x2="450.5771" y1="324.2969" y2="324.2969"/><text fill="#000000" font-family="sans-serif" font-size="14" lengthAdjust="spacing" textLength="209.0771" x="232.5" y="339.292">Data Collector Script (Python)</text></g><!--entity REST API (JAX-RS)--><g class="entity" data-entity="REST API (JAX-RS)" data-source-line="14" data-uid="ent0009" id="entity_REST API (JAX-RS)"><rect fill="#F1F1F1" height="39.2969" rx="2.5" ry="2.5" style="stroke:#181818;stroke-width:0.5;" width="154.9473" x="904.5" y="313.2969"/><polygon fill="#F1F1F1" points="1042.4473,318.2969,1042.4473,332.2969,1054.4473,332.2969,1054.4473,324.2969,1048.4473,318.2969,1042.4473,318.2969" style="stroke:#181818;stroke-width:0.5;"/><line style="stroke:#181818;stroke-width:0.5;" x1="1048.4473" x2="1048.4473" y1="318.2969" y2="324.2969"/><line style="stroke:#181818;stroke-width:0.5;" x1="1054.4473" x2="1048.4473" y1="324.2969" y2="324.2969"/><text fill="#000000" font-family="sans-serif" font-size="14" lengthAdjust="spacing" textLength="124.9473" x="914.5" y="339.292">REST API (JAX-RS)</text></g><!--entity MQTT Broker (Mosquitto)--><g class="entity" data-entity="MQTT Broker (Mosquitto)" data-source-line="15" data-uid="ent0010" id="entity_MQTT Broker (Mosquitto)"><rect fill="#F1F1F1" height="39.2969" rx="2.5" ry="2.5" style="stroke:#181818;stroke-width:0.5;" width="205.5605" x="663" y="313.2969"/><polygon fill="#F1F1F1" points="851.5605,318.2969,851.5605,332.2969,863.5605,332.2969,863.5605,324.2969,857.5605,318.2969,851.5605,318.2969" style="stroke:#181818;stroke-width:0.5;"/><line style="stroke:#181818;stroke-width:0.5;" x1="857.5605" x2="857.5605" y1="318.2969" y2="324.2969"/><line style="stroke:#181818;stroke-width:0.5;" x1="863.5605" x2="857.5605" y1="324.2969" y2="324.2969"/><text fill="#000000" font-family="sans-serif" font-size="14" lengthAdjust="spacing" textLength="175.5605" x="673" y="339.292">MQTT Broker (Mosquitto)</text></g><!--entity MongoDB Database--><g class="entity" data-entity="MongoDB Database" data-source-line="19" data-uid="ent0012" id="entity_MongoDB Database"><rect fill="#F1F1F1" height="39.2969" rx="2.5" ry="2.5" style="stroke:#181818;stroke-width:0.5;" width="168.6055" x="616.5" y="489.2969"/><polygon fill="#F1F1F1" points="768.1055,494.2969,768.1055,508.2969,780.1055,508.2969,780.1055,500.2969,774.1055,494.2969,768.1055,494.2969" style="stroke:#181818;stroke-width:0.5;"/><line style="stroke:#181818;stroke-width:0.5;" x1="774.1055" x2="774.1055" y1="494.2969" y2="500.2969"/><line style="stroke:#181818;stroke-width:0.5;" x1="780.1055" x2="774.1055" y1="500.2969" y2="500.2969"/><text fill="#000000" font-family="sans-serif" font-size="14" lengthAdjust="spacing" textLength="138.6055" x="626.5" y="515.292">MongoDB Database</text></g><!--entity ML Models (LSTM / Random Forest)--><g class="entity" data-entity="ML Models (LSTM / Random Forest)" data-source-line="20" data-uid="ent0013" id="entity_ML Models (LSTM / Random Forest)"><rect fill="#F1F1F1" height="39.2969" rx="2.5" ry="2.5" style="stroke:#181818;stroke-width:0.5;" width="276.4561" x="821" y="489.2969"/><polygon fill="#F1F1F1" points="1080.4561,494.2969,1080.4561,508.2969,1092.4561,508.2969,1092.4561,500.2969,1086.4561,494.2969,1080.4561,494.2969" style="stroke:#181818;stroke-width:0.5;"/><line style="stroke:#181818;stroke-width:0.5;" x1="1086.4561" x2="1086.4561" y1="494.2969" y2="500.2969"/><line style="stroke:#181818;stroke-width:0.5;" x1="1092.4561" x2="1086.4561" y1="500.2969" y2="500.2969"/><text fill="#000000" font-family="sans-serif" font-size="14" lengthAdjust="spacing" textLength="246.4561" x="831" y="515.292">ML Models (LSTM / Random Forest)</text></g><!--entity Jenkins CI/CD Pipeline--><g class="entity" data-entity="Jenkins CI/CD Pipeline" data-source-line="21" data-uid="ent0014" id="entity_Jenkins CI/CD Pipeline"><rect fill="#F1F1F1" height="39.2969" rx="2.5" ry="2.5" style="stroke:#181818;stroke-width:0.5;" width="182.9541" x="617.5" y="607.2969"/><polygon fill="#F1F1F1" points="783.4541,612.2969,783.4541,626.2969,795.4541,626.2969,795.4541,618.2969,789.4541,612.2969,783.4541,612.2969" style="stroke:#181818;stroke-width:0.5;"/><line style="stroke:#181818;stroke-width:0.5;" x1="789.4541" x2="789.4541" y1="612.2969" y2="618.2969"/><line style="stroke:#181818;stroke-width:0.5;" x1="795.4541" x2="789.4541" y1="618.2969" y2="618.2969"/><text fill="#000000" font-family="sans-serif" font-size="14" lengthAdjust="spacing" textLength="152.9541" x="627.5" y="633.292">Jenkins CI/CD Pipeline</text></g><!--entity Docker Containers--><g class="entity" data-entity="Docker Containers" data-source-line="22" data-uid="ent0015" id="entity_Docker Containers"><rect fill="#F1F1F1" height="39.2969" rx="2.5" ry="2.5" style="stroke:#181818;stroke-width:0.5;" width="159.6777" x="836" y="607.2969"/><polygon fill="#F1F1F1" points="978.6777,612.2969,978.6777,626.2969,990.6777,626.2969,990.6777,618.2969,984.6777,612.2969,978.6777,612.2969" style="stroke:#181818;stroke-width:0.5;"/><line style="stroke:#181818;stroke-width:0.5;" x1="984.6777" x2="984.6777" y1="612.2969" y2="618.2969"/><line style="stroke:#181818;stroke-width:0.5;" x1="990.6777" x2="984.6777" y1="618.2969" y2="618.2969"/><text fill="#000000" font-family="sans-serif" font-size="14" lengthAdjust="spacing" textLength="129.6777" x="846" y="633.292">Docker Containers</text></g><!--entity PWA (Progressive Web App)--><g class="entity" data-entity="PWA (Progressive Web App)" data-source-line="28" data-uid="ent0017" id="entity_PWA (Progressive Web App)"><rect fill="#F1F1F1" height="39.2969" rx="2.5" ry="2.5" style="stroke:#181818;stroke-width:0.5;" width="226.2256" x="1540" y="489.2969"/><polygon fill="#F1F1F1" points="1749.2256,494.2969,1749.2256,508.2969,1761.2256,508.2969,1761.2256,500.2969,1755.2256,494.2969,1749.2256,494.2969" style="stroke:#181818;stroke-width:0.5;"/><line style="stroke:#181818;stroke-width:0.5;" x1="1755.2256" x2="1755.2256" y1="494.2969" y2="500.2969"/><line style="stroke:#181818;stroke-width:0.5;" x1="1761.2256" x2="1755.2256" y1="500.2969" y2="500.2969"/><text fill="#000000" font-family="sans-serif" font-size="14" lengthAdjust="spacing" textLength="196.2256" x="1550" y="515.292">PWA (Progressive Web App)</text></g><!--entity Dashboard & Alerts UI--><g class="entity" data-entity="Dashboard &amp; Alerts UI" data-source-line="29" data-uid="ent0018" id="entity_Dashboard &amp; Alerts UI"><rect fill="#F1F1F1" height="39.2969" rx="2.5" ry="2.5" style="stroke:#181818;stroke-width:0.5;" width="185.4629" x="1319.5" y="489.2969"/><polygon fill="#F1F1F1" points="1487.9629,494.2969,1487.9629,508.2969,1499.9629,508.2969,1499.9629,500.2969,1493.9629,494.2969,1487.9629,494.2969" style="stroke:#181818;stroke-width:0.5;"/><line style="stroke:#181818;stroke-width:0.5;" x1="1493.9629" x2="1493.9629" y1="494.2969" y2="500.2969"/><line style="stroke:#181818;stroke-width:0.5;" x1="1499.9629" x2="1493.9629" y1="500.2969" y2="500.2969"/><text fill="#000000" font-family="sans-serif" font-size="14" lengthAdjust="spacing" textLength="155.4629" x="1329.5" y="515.292">Dashboard &amp; Alerts UI</text></g><!--link iot to cloud--><g class="link" data-entity-1="iot" data-entity-2="cloud" data-source-line="33" data-uid="lnk19" id="link_iot_cloud"><path d="M493.2823,111.8389 C493.8206,111.8428 494.3839,111.8471 494.9716,111.8518 C496.1471,111.8612 497.4207,111.8722 498.7891,111.8851 C501.5261,111.9108 504.6425,111.944 508.1132,111.9868 C521.996,112.1579 541.5461,112.4827 565.1403,113.0986 C612.3288,114.3303 675.6938,116.7262 742.25,121.3856 C875.3625,130.7044 1021.24,149.0769 1076,185.2969 C1079.8625,187.8519 1083.5715,190.647 1087.1312,193.6431 C1088.9111,195.1412 1090.6536,196.6894 1092.3594,198.283 C1093.2123,199.0799 1089.7732,195.6859 1090.6078,196.5047" fill="none" id="iot-to-cloud" style="stroke:#181818;stroke-width:1;"/><polygon fill="#181818" points="1094.8906,200.7068,1091.2679,191.5485,1091.3216,197.2051,1085.665,197.2588,1094.8906,200.7068" style="stroke:#181818;stroke-width:1;"/><text fill="#000000" font-family="sans-serif" font-size="13" lengthAdjust="spacing" textLength="174.2432" x="1063" y="173.3638">MQTT / HTTP (sensor data)</text></g><!--link cloud to user--><g class="link" data-entity-1="cloud" data-entity-2="user" data-source-line="34" data-uid="lnk20" id="link_cloud_user"><path d="M1169.0086,363.4851 C1169.049,363.6121 1169.0895,363.7393 1169.1302,363.8668 C1169.2116,364.1218 1169.2936,364.3776 1169.3763,364.6344 C1174.665,381.0669 1182.5,401.1619 1193,417.2969 C1208.315,440.8269 1230.6,463.1169 1249.2838,479.6881 C1258.6256,487.9738 1267.0672,494.8297 1273.287,499.6961 C1274.0645,500.3044 1274.8073,500.8816 1275.5127,501.4266 C1275.6009,501.4948 1270.9378,497.8977 1271.0248,497.9648" fill="none" id="cloud-to-user" style="stroke:#181818;stroke-width:1;"/><polygon fill="#181818" points="1275.7755,501.6295,1271.0925,492.9653,1271.8166,498.5756,1266.2062,499.2996,1275.7755,501.6295" style="stroke:#181818;stroke-width:1;"/><text fill="#000000" font-family="sans-serif" font-size="13" lengthAdjust="spacing" textLength="114.1626" x="1194" y="413.3638">HTTPS (REST API)</text></g><!--link user to cloud--><g class="link" data-entity-1="user" data-entity-2="cloud" data-source-line="37" data-uid="lnk23" id="link_user_cloud"><path d="M1296.4104,440.9717 C1296.8385,439.8765 1297.2812,438.7882 1297.7393,437.7087 C1299.5714,433.3906 1301.6475,429.2131 1304,425.2969 C1306.76,420.7069 1310.81,422.1769 1313,417.2969 C1316.1,410.4069 1317.14,406.6169 1313,400.2969 C1293.135,369.9219 1256.0025,353.3369 1223.4125,344.3256 C1207.1175,339.82 1191.9581,337.2078 1180.6606,335.712 C1177.8362,335.3381 1175.2532,335.0339 1172.9542,334.7874 C1171.8047,334.6641 1170.7261,334.5553 1169.7239,334.4593 C1169.5987,334.4473 1175.448,334.9992 1175.3252,334.9876" fill="none" id="user-to-cloud" style="stroke:#181818;stroke-width:1;"/><polygon fill="#181818" points="1169.3517,334.4239,1177.9361,339.2518,1174.3296,334.8937,1178.6877,331.2872,1169.3517,334.4239" style="stroke:#181818;stroke-width:1;"/><text fill="#000000" font-family="sans-serif" font-size="13" lengthAdjust="spacing" textLength="151.8232" x="1316" y="413.3638">Web interface requests</text></g><!--link backend to middleware--><g class="link" data-entity-1="backend" data-entity-2="middleware" data-source-line="35" data-uid="lnk21" id="link_backend_middleware"><path d="M588.981,441.0359 C589.0448,440.909 589.109,440.7824 589.1736,440.656 C589.3028,440.4033 589.4337,440.1516 589.5663,439.9009 C589.8314,439.3995 590.1034,438.9024 590.3824,438.4097 C590.9403,437.4243 591.526,436.457 592.1409,435.5102 C594.6005,431.723 597.5263,428.2644 601,425.2969 C617.78,410.9669 685.03,433.5169 700,417.2969 C705.12,411.7469 704.93,406.0269 700,400.2969 C684.46,382.2369 665.17,407.7069 647,392.2969 C644.475,390.1556 642.283,387.6752 640.3803,384.969 C639.429,383.616 638.55,382.2065 637.7378,380.7548 C637.3318,380.0289 636.9425,379.2925 636.5692,378.5473 C636.3825,378.1747 636.1999,377.7999 636.0212,377.4232 C635.9318,377.2348 635.8434,377.0459 635.756,376.8566 C635.7123,376.7619 638.1556,382.1275 638.1124,382.0326" fill="none" id="backend-to-middleware" style="stroke:#181818;stroke-width:1;"/><polygon fill="#181818" points="635.6257,376.5722,635.7155,386.4207,637.6979,381.1226,642.996,383.105,635.6257,376.5722" style="stroke:#181818;stroke-width:1;"/><text fill="#000000" font-family="sans-serif" font-size="13" lengthAdjust="spacing" textLength="108.272" x="705" y="413.3638">Internal API calls</text></g><!--link middleware to backend--><g class="link" data-entity-1="middleware" data-entity-2="backend" data-source-line="36" data-uid="lnk22" id="link_middleware_backend"><path d="M619.8763,342.7958 C619.6469,343.064 619.4141,343.3373 619.1779,343.6157 C618.2333,344.7293 617.2363,345.9241 616.1989,347.193 C614.1241,349.7306 611.8878,352.5644 609.5863,355.6369 C600.38,367.9269 590.13,384.0369 585,400.2969 C581.46,411.5169 579.42,423.725 578.3561,435.7553 C578.2231,437.2591 578.1054,438.7601 578.0019,440.2561 C577.9889,440.4431 578.3766,434.6434 578.3641,434.8302" fill="none" id="middleware-to-backend" style="stroke:#181818;stroke-width:1;"/><polygon fill="#181818" points="577.9637,440.8168,582.5554,432.1038,578.2974,435.828,574.5732,431.5699,577.9637,440.8168" style="stroke:#181818;stroke-width:1;"/><text fill="#000000" font-family="sans-serif" font-size="13" lengthAdjust="spacing" textLength="105.5171" x="586" y="413.3638">Data processing</text></g><!--SRC=[PPFTRjem5CVlynH7N6pX0i6ADar8J0e9tQYQAKk2sAr9pgY5OxksOKDLdsBFjFUQxK2Rb0iaY7_nEVyF33KC8K79nAb1Rg2cPAT80oE8LlaesaJv4egJDjW4mNkOp-Vm_T_VGmqVO0OnaGOF2bQYT2S15pN2mFrAy4WhX30dMcvHgHDa5CQmBBBfpN00H0CL1fu20A8C_KKg0uD5klpqUG85SYsKPxODzeZYQpRj0NedUq2M5XydasaNaKsFI8WX40l6i392GL4fAWs4sSay23uS1CzzbJTE9HFsszXUgevERQOehwWahAEvPJpHZgty0oUm1L9Qrmn_4sLDsL1Mtx9JwqFpUk3exgxviYWXobOGtaK_HtbXr-i3wO-oX8KIUrGGfa8_7gWnmcFFzlCoV46gFV9sFnkBRiqzFtmxDHLy9v85EAUsHEFLq7j8xQrCGtXVbAar9YUy5WtS2eNQN2rvXtnFkOPuDOuJMmE9ZFAhMnDHEHMnu8ROOwLR4M_YcDeuLjoWiYyXh0rbL1DVmTSerjhUS-bV5hlW6Zj7sdonjVpWY7xtiaraOILsLeAcHuGDRY6IqglfjaS_R0LHDRo3YA4o6jQhJcdi-Xp_K67bkeLSnqUZB-SopC3dDOPlPPb1g7r7eROs3uEMSAnVRkQPmlv_pXKO1fUu7DFfpDaFRjlecb8HndJGENVuvTMPpnIa4fLJoNU17zRTqCccBmOhV3pOIFL_]--></g></svg>