<svg xmlns="http://www.w3.org/2000/svg" xmlns:xlink="http://www.w3.org/1999/xlink" contentStyleType="text/css" data-diagram-type="DESCRIPTION" height="812px" preserveAspectRatio="none" style="width:4356px;height:812px;background:#FFFFFF;" version="1.1" viewBox="0 0 4356 812" width="4356px" zoomAndPan="magnify"><title>Diagramme de cas d&#8217;utilisation - AIR-AWARE</title><defs/><g><g class="title" data-source-line="1"><text fill="#000000" font-family="sans-serif" font-size="14" font-weight="bold" lengthAdjust="spacing" textLength="352.0303" x="1995.1965" y="22.9951">Diagramme de cas d&#8217;utilisation - AIR-AWARE</text></g><!--cluster SYS--><g class="cluster" data-entity="SYS" data-source-line="16" data-uid="ent0008" id="cluster_SYS"><rect fill="none" height="471" rx="2.5" ry="2.5" style="stroke:#181818;stroke-width:1;" width="4156" x="100.5" y="335.7969"/><text fill="#000000" font-family="sans-serif" font-size="14" font-weight="bold" lengthAdjust="spacing" textLength="162.7773" x="2097.1113" y="350.792">Syst&#232;me AIR-AWARE</text></g><!--entity UC1--><g class="entity" data-entity="UC1" data-source-line="19" data-uid="ent0009" id="entity_UC1"><ellipse cx="2696.717" cy="405.8403" fill="#F1F1F1" rx="163.217" ry="35.0434" style="stroke:#181818;stroke-width:0.5;"/><text fill="#000000" font-family="sans-serif" font-size="14" lengthAdjust="spacing" textLength="179.5391" x="2606.9475" y="394.1918">Mesurer la qualit&#233; de l&#8217;air</text><text fill="#000000" font-family="sans-serif" font-size="14" lengthAdjust="spacing" textLength="309.9004" x="2541.7668" y="410.4887">(temp&#233;rature, humidit&#233;, CO&#8322;, VOC, PM2.5...)</text></g><!--entity UC2--><g class="entity" data-entity="UC2" data-source-line="20" data-uid="ent0010" id="entity_UC2"><ellipse cx="3010.2517" cy="405.8472" fill="#F1F1F1" rx="115.7517" ry="25.5503" style="stroke:#181818;stroke-width:0.5;"/><text fill="#000000" font-family="sans-serif" font-size="14" lengthAdjust="spacing" textLength="210.2666" x="2905.1184" y="410.4956">Envoyer les mesures au cloud</text></g><!--entity UC3--><g class="entity" data-entity="UC3" data-source-line="21" data-uid="ent0011" id="entity_UC3"><ellipse cx="3264.3612" cy="405.6691" fill="#F1F1F1" rx="102.3612" ry="22.8722" style="stroke:#181818;stroke-width:0.5;"/><text fill="#000000" font-family="sans-serif" font-size="14" lengthAdjust="spacing" textLength="181.248" x="3173.7371" y="410.3175">Synchroniser les capteurs</text></g><!--entity UC4--><g class="entity" data-entity="UC4" data-source-line="22" data-uid="ent0012" id="entity_UC4"><ellipse cx="3516.5136" cy="405.9996" fill="#F1F1F1" rx="114.0136" ry="25.2027" style="stroke:#181818;stroke-width:0.5;"/><text fill="#000000" font-family="sans-serif" font-size="14" lengthAdjust="spacing" textLength="206.5342" x="3413.2465" y="410.648">Auto-calibration des capteurs</text></g><!--entity UC5--><g class="entity" data-entity="UC5" data-source-line="25" data-uid="ent0013" id="entity_UC5"><ellipse cx="3800.6469" cy="405.7263" fill="#F1F1F1" rx="135.1469" ry="29.4294" style="stroke:#181818;stroke-width:0.5;"/><text fill="#000000" font-family="sans-serif" font-size="14" lengthAdjust="spacing" textLength="251.4189" x="3674.9374" y="410.3747">Stocker les donn&#233;es dans MongoDB</text></g><!--entity UC6--><g class="entity" data-entity="UC6" data-source-line="26" data-uid="ent0014" id="entity_UC6"><ellipse cx="4105.4063" cy="405.6781" fill="#F1F1F1" rx="134.9063" ry="29.3813" style="stroke:#181818;stroke-width:0.5;"/><text fill="#000000" font-family="sans-serif" font-size="14" lengthAdjust="spacing" textLength="250.9131" x="3979.9497" y="410.3266">Analyser les donn&#233;es en temps r&#233;el</text></g><!--entity UC7--><g class="entity" data-entity="UC7" data-source-line="27" data-uid="ent0015" id="entity_UC7"><ellipse cx="261.5219" cy="541.9013" fill="#F1F1F1" rx="93.5219" ry="21.1044" style="stroke:#181818;stroke-width:0.5;"/><text fill="#000000" font-family="sans-serif" font-size="14" lengthAdjust="spacing" textLength="161.6699" x="180.687" y="546.5497">D&#233;tecter les anomalies</text></g><!--entity UC8--><g class="entity" data-entity="UC8" data-source-line="28" data-uid="ent0016" id="entity_UC8"><ellipse cx="260.3939" cy="645.8757" fill="#F1F1F1" rx="98.3939" ry="22.0788" style="stroke:#181818;stroke-width:0.5;"/><text fill="#000000" font-family="sans-serif" font-size="14" lengthAdjust="spacing" textLength="172.5117" x="174.1381" y="650.5241">Pr&#233;dire la qualit&#233; de l&#8217;air</text></g><!--entity UC9--><g class="entity" data-entity="UC9" data-source-line="29" data-uid="ent0017" id="entity_UC9"><ellipse cx="260.4278" cy="759.8824" fill="#F1F1F1" rx="143.4278" ry="31.0856" style="stroke:#181818;stroke-width:0.5;"/><text fill="#000000" font-family="sans-serif" font-size="14" lengthAdjust="spacing" textLength="268.7754" x="126.0401" y="764.5309">Recommander des actions correctives</text></g><!--entity UC10--><g class="entity" data-entity="UC10" data-source-line="32" data-uid="ent0018" id="entity_UC10"><ellipse cx="1071.4419" cy="405.5853" fill="#F1F1F1" rx="131.9419" ry="28.7884" style="stroke:#181818;stroke-width:0.5;"/><text fill="#000000" font-family="sans-serif" font-size="14" lengthAdjust="spacing" textLength="244.6719" x="949.1059" y="410.2337">Afficher les mesures en temps r&#233;el</text></g><!--entity UC11--><g class="entity" data-entity="UC11" data-source-line="33" data-uid="ent0019" id="entity_UC11"><ellipse cx="1376.4722" cy="405.7913" fill="#F1F1F1" rx="137.9722" ry="29.9944" style="stroke:#181818;stroke-width:0.5;"/><text fill="#000000" font-family="sans-serif" font-size="14" lengthAdjust="spacing" textLength="257.3525" x="1247.796" y="410.4398">Afficher l&#8217;historique et les tendances</text></g><!--entity UC12--><g class="entity" data-entity="UC12" data-source-line="34" data-uid="ent0020" id="entity_UC12"><ellipse cx="227.5349" cy="406.0038" fill="#F1F1F1" rx="111.5349" ry="24.707" style="stroke:#181818;stroke-width:0.5;"/><text fill="#000000" font-family="sans-serif" font-size="14" lengthAdjust="spacing" textLength="201.1953" x="126.9372" y="410.6523">Configurer les seuils d&#8217;alerte</text></g><!--entity UC13--><g class="entity" data-entity="UC13" data-source-line="35" data-uid="ent0021" id="entity_UC13"><ellipse cx="509.4721" cy="405.7913" fill="#F1F1F1" rx="135.4721" ry="29.4944" style="stroke:#181818;stroke-width:0.5;"/><text fill="#000000" font-family="sans-serif" font-size="14" lengthAdjust="spacing" textLength="252.1025" x="383.4208" y="410.4397">Recevoir des alertes et notifications</text></g><!--entity UC14--><g class="entity" data-entity="UC14" data-source-line="36" data-uid="ent0022" id="entity_UC14"><ellipse cx="792.71" cy="405.6389" fill="#F1F1F1" rx="112.21" ry="24.842" style="stroke:#181818;stroke-width:0.5;"/><text fill="#000000" font-family="sans-serif" font-size="14" lengthAdjust="spacing" textLength="202.6514" x="691.3843" y="410.2873">Se connecter / G&#233;rer le profil</text></g><!--entity UC15--><g class="entity" data-entity="UC15" data-source-line="39" data-uid="ent0023" id="entity_UC15"><ellipse cx="1636.6932" cy="406.0355" fill="#F1F1F1" rx="86.6932" ry="19.7386" style="stroke:#181818;stroke-width:0.5;"/><text fill="#000000" font-family="sans-serif" font-size="14" lengthAdjust="spacing" textLength="146.2139" x="1563.5863" y="410.6839">G&#233;rer les utilisateurs</text></g><!--entity UC16--><g class="entity" data-entity="UC16" data-source-line="40" data-uid="ent0024" id="entity_UC16"><ellipse cx="1866.3264" cy="405.7622" fill="#F1F1F1" rx="107.8264" ry="23.9653" style="stroke:#181818;stroke-width:0.5;"/><text fill="#000000" font-family="sans-serif" font-size="14" lengthAdjust="spacing" textLength="193.1699" x="1769.7415" y="410.4106">G&#233;rer les capteurs et zones</text></g><!--entity UC17--><g class="entity" data-entity="UC17" data-source-line="41" data-uid="ent0025" id="entity_UC17"><ellipse cx="2121.2693" cy="405.5507" fill="#F1F1F1" rx="111.7693" ry="24.7539" style="stroke:#181818;stroke-width:0.5;"/><text fill="#000000" font-family="sans-serif" font-size="14" lengthAdjust="spacing" textLength="201.7012" x="2020.4187" y="410.1992">Superviser l&#8217;&#233;tat du syst&#232;me</text></g><!--entity UC18--><g class="entity" data-entity="UC18" data-source-line="42" data-uid="ent0026" id="entity_UC18"><ellipse cx="2383.2962" cy="405.6561" fill="#F1F1F1" rx="114.7962" ry="25.3592" style="stroke:#181818;stroke-width:0.5;"/><text fill="#000000" font-family="sans-serif" font-size="14" lengthAdjust="spacing" textLength="208.2158" x="2279.1883" y="410.3045">Mettre &#224; jour le firmware OTA</text></g><!--entity U--><g class="entity" data-entity="U" data-source-line="8" data-uid="ent0002" id="entity_U"><ellipse cx="872.5049" cy="212.7969" fill="#F1F1F1" rx="8" ry="8" style="stroke:#181818;stroke-width:0.5;"/><path d="M872.5049,220.7969 L872.5049,247.7969 M859.5049,228.7969 L885.5049,228.7969 M872.5049,247.7969 L859.5049,262.7969 M872.5049,247.7969 L885.5049,262.7969" fill="none" style="stroke:#181818;stroke-width:0.5;"/><text fill="#000000" font-family="sans-serif" font-size="14" lengthAdjust="spacing" textLength="72.0098" x="836.5" y="277.292">Utilisateur</text></g><!--entity A--><g class="entity" data-entity="A" data-source-line="9" data-uid="ent0003" id="entity_A"><ellipse cx="1977.3018" cy="212.7969" fill="#F1F1F1" rx="8" ry="8" style="stroke:#181818;stroke-width:0.5;"/><path d="M1977.3018,220.7969 L1977.3018,247.7969 M1964.3018,228.7969 L1990.3018,228.7969 M1977.3018,247.7969 L1964.3018,262.7969 M1977.3018,247.7969 L1990.3018,262.7969" fill="none" style="stroke:#181818;stroke-width:0.5;"/><text fill="#000000" font-family="sans-serif" font-size="14" lengthAdjust="spacing" textLength="104.6035" x="1925" y="277.292">Administrateur</text></g><!--entity IOT--><g class="entity" data-entity="IOT" data-source-line="10" data-uid="ent0004" id="entity_IOT"><ellipse cx="3121.2578" cy="204.2969" fill="#F1F1F1" rx="8" ry="8" style="stroke:#181818;stroke-width:0.5;"/><path d="M3121.2578,212.2969 L3121.2578,239.2969 M3108.2578,220.2969 L3134.2578,220.2969 M3121.2578,239.2969 L3108.2578,254.2969 M3121.2578,239.2969 L3134.2578,254.2969" fill="none" style="stroke:#181818;stroke-width:0.5;"/><text fill="#000000" font-family="sans-serif" font-size="14" lengthAdjust="spacing" textLength="86.5156" x="3078" y="268.792">Syst&#232;me IoT</text><text fill="#000000" font-family="sans-serif" font-size="14" lengthAdjust="spacing" textLength="74.1904" x="3078" y="285.0889">(Capteurs)</text></g><!--entity C--><g class="entity" data-entity="C" data-source-line="11" data-uid="ent0005" id="entity_C"><ellipse cx="3919.6118" cy="212.7969" fill="#F1F1F1" rx="8" ry="8" style="stroke:#181818;stroke-width:0.5;"/><path d="M3919.6118,220.7969 L3919.6118,247.7969 M3906.6118,228.7969 L3932.6118,228.7969 M3919.6118,247.7969 L3906.6118,262.7969 M3919.6118,247.7969 L3932.6118,262.7969" fill="none" style="stroke:#181818;stroke-width:0.5;"/><text fill="#000000" font-family="sans-serif" font-size="14" lengthAdjust="spacing" textLength="99.2236" x="3870" y="277.292">Serveur Cloud</text></g><!--entity ML--><g class="entity" data-entity="ML" data-source-line="12" data-uid="ent0006" id="entity_ML"><ellipse cx="43.4883" cy="376.2969" fill="#F1F1F1" rx="8" ry="8" style="stroke:#181818;stroke-width:0.5;"/><path d="M43.4883,384.2969 L43.4883,411.2969 M30.4883,392.2969 L56.4883,392.2969 M43.4883,411.2969 L30.4883,426.2969 M43.4883,411.2969 L56.4883,426.2969" fill="none" style="stroke:#181818;stroke-width:0.5;"/><text fill="#000000" font-family="sans-serif" font-size="14" lengthAdjust="spacing" textLength="74.9766" x="6" y="440.792">Mod&#232;le ML</text></g><!--entity N--><g class="entity" data-entity="N" data-source-line="13" data-uid="ent0007" id="entity_N"><ellipse cx="2623.7354" cy="51.2969" fill="#F1F1F1" rx="8" ry="8" style="stroke:#181818;stroke-width:0.5;"/><path d="M2623.7354,59.2969 L2623.7354,86.2969 M2610.7354,67.2969 L2636.7354,67.2969 M2623.7354,86.2969 L2610.7354,101.2969 M2623.7354,86.2969 L2636.7354,101.2969" fill="none" style="stroke:#181818;stroke-width:0.5;"/><text fill="#000000" font-family="sans-serif" font-size="14" lengthAdjust="spacing" textLength="158.4707" x="2544.5" y="115.792">Service de Notification</text></g><!--link U to UC10--><g class="link" data-entity-1="U" data-entity-2="UC10" data-source-line="48" data-uid="lnk27" id="link_U_UC10"><path d="M908.54,272.5469 C945.39,302.4469 997.5113,344.7459 1033.3913,373.8659" fill="none" id="U-to-UC10" style="stroke:#181818;stroke-width:1;"/><polygon fill="#181818" points="1038.05,377.6469,1033.5826,368.8695,1034.1677,374.496,1028.5412,375.0812,1038.05,377.6469" style="stroke:#181818;stroke-width:1;"/></g><!--link U to UC11--><g class="link" data-entity-1="U" data-entity-2="UC11" data-source-line="49" data-uid="lnk28" id="link_U_UC11"><path d="M908.7,249.2969 C972.96,260.5569 1110.64,287.4169 1221.5,327.7969 C1258.63,341.3169 1293.2302,358.4167 1323.2402,374.6167" fill="none" id="U-to-UC11" style="stroke:#181818;stroke-width:1;"/><polygon fill="#181818" points="1328.52,377.4669,1322.5004,369.6718,1324.1201,375.0917,1318.7002,376.7115,1328.52,377.4669" style="stroke:#181818;stroke-width:1;"/></g><!--link U to UC12--><g class="link" data-entity-1="U" data-entity-2="UC12" data-source-line="50" data-uid="lnk29" id="link_U_UC12"><path d="M836.3,244.5869 C750.43,248.6469 528.74,264.8769 356.5,327.7969 C320.36,340.9969 287.9561,361.1072 262.8161,378.6972" fill="none" id="U-to-UC12" style="stroke:#181818;stroke-width:1;"/><polygon fill="#181818" points="257.9,382.1369,267.5673,380.2547,261.9968,379.2704,262.981,373.6999,257.9,382.1369" style="stroke:#181818;stroke-width:1;"/></g><!--link U to UC13--><g class="link" data-entity-1="U" data-entity-2="UC13" data-source-line="51" data-uid="lnk30" id="link_U_UC13"><path d="M836.26,256.9469 C794.29,272.9769 723.25,300.8269 663.5,327.7969 C628.49,343.5969 595.1554,360.1922 565.3354,375.5322" fill="none" id="U-to-UC13" style="stroke:#181818;stroke-width:1;"/><polygon fill="#181818" points="560,378.2769,569.8329,377.7169,564.4462,375.9897,566.1734,370.6029,560,378.2769" style="stroke:#181818;stroke-width:1;"/></g><!--link U to UC14--><g class="link" data-entity-1="U" data-entity-2="UC14" data-source-line="52" data-uid="lnk31" id="link_U_UC14"><path d="M854.15,280.3469 C838.83,311.2669 820.1246,349.041 806.9846,375.551" fill="none" id="U-to-UC14" style="stroke:#181818;stroke-width:1;"/><polygon fill="#181818" points="804.32,380.9269,811.9008,374.6395,806.5405,376.447,804.733,371.0867,804.32,380.9269" style="stroke:#181818;stroke-width:1;"/></g><!--link A to UC15--><g class="link" data-entity-1="A" data-entity-2="UC15" data-source-line="55" data-uid="lnk32" id="link_A_UC15"><path d="M1924.57,257.4669 C1875.5,271.6969 1801.26,296.0469 1741.5,327.7969 C1710.16,344.4469 1682.3777,365.7938 1662.0077,382.7838" fill="none" id="A-to-UC15" style="stroke:#181818;stroke-width:1;"/><polygon fill="#181818" points="1657.4,386.6269,1666.8736,383.934,1661.2397,383.4243,1661.7494,377.7904,1657.4,386.6269" style="stroke:#181818;stroke-width:1;"/></g><!--link A to UC16--><g class="link" data-entity-1="A" data-entity-2="UC16" data-source-line="56" data-uid="lnk33" id="link_A_UC16"><path d="M1952.03,280.3469 C1930.53,311.6369 1903.8078,350.5117 1885.6478,376.9417" fill="none" id="A-to-UC16" style="stroke:#181818;stroke-width:1;"/><polygon fill="#181818" points="1882.25,381.8869,1890.6435,376.7343,1885.0815,377.7659,1884.0499,372.2039,1882.25,381.8869" style="stroke:#181818;stroke-width:1;"/></g><!--link A to UC17--><g class="link" data-entity-1="A" data-entity-2="UC17" data-source-line="57" data-uid="lnk34" id="link_A_UC17"><path d="M2010.54,280.3469 C2038.1,311.2669 2072.5867,349.9388 2096.2267,376.4488" fill="none" id="A-to-UC17" style="stroke:#181818;stroke-width:1;"/><polygon fill="#181818" points="2100.22,380.9269,2097.2154,371.5475,2096.8922,377.1951,2091.2446,376.8719,2100.22,380.9269" style="stroke:#181818;stroke-width:1;"/></g><!--link A to UC18--><g class="link" data-entity-1="A" data-entity-2="UC18" data-source-line="58" data-uid="lnk35" id="link_A_UC18"><path d="M2030.03,255.6769 C2086.16,269.7669 2177.09,295.1369 2251.5,327.7969 C2285.88,342.8869 2317.5257,361.5837 2343.4757,378.1837" fill="none" id="A-to-UC18" style="stroke:#181818;stroke-width:1;"/><polygon fill="#181818" points="2348.53,381.4169,2343.104,373.1975,2344.3181,378.7225,2338.793,379.9366,2348.53,381.4169" style="stroke:#181818;stroke-width:1;"/></g><!--link IOT to UC1--><g class="link" data-entity-1="IOT" data-entity-2="UC1" data-source-line="61" data-uid="lnk36" id="link_IOT_UC1"><path d="M3077.98,257.3669 C3028.92,273.4569 2946.94,301.0369 2877.5,327.7969 C2840.22,342.1669 2804.7128,357.0855 2771.1628,371.6655" fill="none" id="IOT-to-UC1" style="stroke:#181818;stroke-width:1;"/><polygon fill="#181818" points="2765.66,374.0569,2775.5085,374.1383,2770.2457,372.064,2772.32,366.8012,2765.66,374.0569" style="stroke:#181818;stroke-width:1;"/></g><!--link IOT to UC2--><g class="link" data-entity-1="IOT" data-entity-2="UC2" data-source-line="62" data-uid="lnk37" id="link_IOT_UC2"><path d="M3089.99,289.1469 C3069.61,318.7969 3047.2784,351.2821 3030.7084,375.3921" fill="none" id="IOT-to-UC2" style="stroke:#181818;stroke-width:1;"/><polygon fill="#181818" points="3027.31,380.3369,3035.7041,375.1853,3030.142,376.2162,3029.1111,370.6541,3027.31,380.3369" style="stroke:#181818;stroke-width:1;"/></g><!--link IOT to UC3--><g class="link" data-entity-1="IOT" data-entity-2="UC3" data-source-line="63" data-uid="lnk38" id="link_IOT_UC3"><path d="M3162.1,289.1469 C3189.34,319.9169 3220.0322,354.575 3241.2322,378.515" fill="none" id="IOT-to-UC3" style="stroke:#181818;stroke-width:1;"/><polygon fill="#181818" points="3245.21,383.0069,3242.2379,373.6172,3241.8952,379.2636,3236.2487,378.9209,3245.21,383.0069" style="stroke:#181818;stroke-width:1;"/></g><!--link IOT to UC4--><g class="link" data-entity-1="IOT" data-entity-2="UC4" data-source-line="64" data-uid="lnk39" id="link_IOT_UC4"><path d="M3165.39,254.2569 C3218.49,268.2269 3310.04,294.5869 3384.5,327.7969 C3419.03,343.1969 3450.9605,362.0817 3476.9705,378.6617" fill="none" id="IOT-to-UC4" style="stroke:#181818;stroke-width:1;"/><polygon fill="#181818" points="3482.03,381.8869,3476.5909,373.6762,3477.8138,379.1992,3472.2907,380.4221,3482.03,381.8869" style="stroke:#181818;stroke-width:1;"/></g><!--link C to UC5--><g class="link" data-entity-1="C" data-entity-2="UC5" data-source-line="67" data-uid="lnk40" id="link_C_UC5"><path d="M3892.2,280.3469 C3870.65,309.5869 3844.5979,344.9356 3824.9279,371.6456" fill="none" id="C-to-UC5" style="stroke:#181818;stroke-width:1;"/><polygon fill="#181818" points="3821.37,376.4769,3829.9277,371.6019,3824.3349,372.4508,3823.486,366.858,3821.37,376.4769" style="stroke:#181818;stroke-width:1;"/></g><!--link C to UC6--><g class="link" data-entity-1="C" data-entity-2="UC6" data-source-line="68" data-uid="lnk41" id="link_C_UC6"><path d="M3962.17,280.3469 C3996.06,309.7769 4038.1895,346.3531 4068.9395,373.0531" fill="none" id="C-to-UC6" style="stroke:#181818;stroke-width:1;"/><polygon fill="#181818" points="4073.47,376.9869,4069.2968,368.0659,4069.6946,373.7087,4064.0517,374.1065,4073.47,376.9869" style="stroke:#181818;stroke-width:1;"/></g><!--link ML to UC7--><g class="link" data-entity-1="ML" data-entity-2="UC7" data-source-line="71" data-uid="lnk42" id="link_ML_UC7"><path d="M81.1,431.4569 C87.55,435.6169 94.2,439.8569 100.5,443.7969 C144.9,471.5769 191.7471,499.59 224.3771,518.91" fill="none" id="ML-to-UC7" style="stroke:#181818;stroke-width:1;"/><polygon fill="#181818" points="229.54,521.9669,223.8336,513.9396,225.2376,519.4195,219.7577,520.8234,229.54,521.9669" style="stroke:#181818;stroke-width:1;"/></g><!--link ML to UC8--><g class="link" data-entity-1="ML" data-entity-2="UC8" data-source-line="72" data-uid="lnk43" id="link_ML_UC8"><path d="M64.23,443.9969 C83.85,477.2869 115.45,526.3369 150.5,562.7969 C173.78,587.0069 199.7688,606.1272 222.9288,621.3772" fill="none" id="ML-to-UC8" style="stroke:#181818;stroke-width:1;"/><polygon fill="#181818" points="227.94,624.6769,222.623,616.3865,223.764,621.9271,218.2234,623.0681,227.94,624.6769" style="stroke:#181818;stroke-width:1;"/></g><!--link ML to UC9--><g class="link" data-entity-1="ML" data-entity-2="UC9" data-source-line="73" data-uid="lnk44" id="link_ML_UC9"><path d="M51.19,444.0669 C63.67,497.7069 92.34,597.8969 144.5,667.7969 C163.1,692.7169 185.2215,711.0938 208.5415,727.0838" fill="none" id="ML-to-UC9" style="stroke:#181818;stroke-width:1;"/><polygon fill="#181818" points="213.49,730.4769,208.3293,722.0883,209.3663,727.6493,203.8053,728.6863,213.49,730.4769" style="stroke:#181818;stroke-width:1;"/></g><!--link UC9 to N--><g class="link" data-entity-1="UC9" data-entity-2="N" data-source-line="76" data-uid="lnk45" id="link_UC9_N"><path d="M404.04,758.6369 C1122.47,757.3769 4293.5,746.1769 4293.5,646.7969 C4293.5,241.2969 4293.5,241.2969 4293.5,241.2969 C4293.5,160.3569 3040.0942,99.9702 2708.6342,85.4102" fill="none" id="UC9-to-N" style="stroke:#181818;stroke-width:1;"/><polygon fill="#181818" points="2702.64,85.1469,2711.4558,89.538,2707.6352,85.3663,2711.8069,81.5457,2702.64,85.1469" style="stroke:#181818;stroke-width:1;"/><text fill="#000000" font-family="sans-serif" font-size="13" lengthAdjust="spacing" textLength="53.9233" x="4294.5" y="486.8638">&#171;alerte&#187;</text></g><!--link N to U--><g class="link" data-entity-1="N" data-entity-2="U" data-source-line="77" data-uid="lnk46" id="link_N_U"><path d="M2544.29,89.0169 C2236.19,117.0769 1130.0452,217.8324 914.7252,237.4524" fill="none" id="N-to-U" style="stroke:#181818;stroke-width:1;"/><polygon fill="#181818" points="908.75,237.9969,918.0758,241.1637,913.7294,237.5432,917.3499,233.1967,908.75,237.9969" style="stroke:#181818;stroke-width:1;"/><text fill="#000000" font-family="sans-serif" font-size="13" lengthAdjust="spacing" textLength="89.0132" x="1853.5" y="161.8638">&#171;notification&#187;</text></g><!--link UC6 to UC7--><g class="link" data-entity-1="UC6" data-entity-2="UC7" data-source-line="80" data-uid="lnk47" id="link_UC6_UC7"><path d="M4025.64,429.6069 C4002.56,435.2769 3977.19,440.6369 3953.5,443.7969 C3227.36,540.5969 862.09,541.8871 361.02,541.0371" fill="none" id="UC6-to-UC7" style="stroke:#181818;stroke-width:1;"/><polygon fill="#181818" points="355.02,541.0269,364.0132,545.0421,360.02,541.0354,364.0268,537.0421,355.02,541.0269" style="stroke:#181818;stroke-width:1;"/></g><!--link UC7 to UC8--><g class="link" data-entity-1="UC7" data-entity-2="UC8" data-source-line="81" data-uid="lnk48" id="link_UC7_UC8"><path d="M261.3,562.9469 C261.13,580.4869 260.9372,599.8071 260.7672,617.6371" fill="none" id="UC7-to-UC8" style="stroke:#181818;stroke-width:1;"/><polygon fill="#181818" points="260.71,623.6369,264.7956,614.6754,260.7577,618.6371,256.796,614.5991,260.71,623.6369" style="stroke:#181818;stroke-width:1;"/></g><!--link UC8 to UC9--><g class="link" data-entity-1="UC8" data-entity-2="UC9" data-source-line="82" data-uid="lnk49" id="link_UC8_UC9"><path d="M260.5,667.8669 C260.5,684.9769 260.5,703.3269 260.5,722.5269" fill="none" id="UC8-to-UC9" style="stroke:#181818;stroke-width:1;"/><polygon fill="#181818" points="260.5,728.5269,264.5,719.5269,260.5,723.5269,256.5,719.5269,260.5,728.5269" style="stroke:#181818;stroke-width:1;"/></g><!--SRC=[TLN9JXj14BtFLvIua4WsYGt6407IPB0YIzxa9L6aN9gPjjt9JBVfnH698aNyHMuvmdVuJ_YILFUi7WAIKRcgNYslgikQwPZ2DIChIPA4GaGX90gYfzz_Z6OnKqGpmQ49Vd_Qz3_vqnvuNaoN6hG0oLPh3H6JDBHUtY6CEJ2-fL9Hs0WZmN0qvx5Hhrb8Oa-BZONV2Ar5Ki5ZWClBI_23UMyndLdP8w4M4WuMMItKo0F0-XQvmOyInfdIihJvkMrsf_Jk0HFtnVmBVnMGZVLHhvrNVpml_AZSeW62M9Z86OFSD1JHxW496WwSVZYeObZe-1e9pPRObst1UOtoHcQVP_FUi0UJQNyKz2V-mBLakoLyXL7B2WjsNG34mKyFyC_zEuHc4mSGtXgcc1i7Peq4vxj7ggpDUHb5SN8OT4YLaLH2JE3Ma9ZftQC5n3XImYGIeMcosJqYO-ZMWBL9M6IT6X2Cd-xl6_1n73HWCcmVTOwEZbAs5a5hFqcFRyMTJO8L92wX0c8WB2XS1ErznEoEXsifS5WPBCpcaRaVxxlxHeicBWkxaIJh-HdafCxHN1A6tL6kWMhmEOdlCDOpXcPQXD-oAWeU8y9nm8AlnFNxB7wdLb8QhuQZ72oX2YH-ZJFawJxoUlUeSUePb72HO6CqRwExxpp1GFPDl33037Is3vhIK2G9uH7ci4mHzwAGCI7TwzeMsSwz2c5zZaMblb1vOyyfyvUuuklQmF_RUkljIqYiVurFLKXsQwWTa8sbAKVcmwAyLctH0i6NR9KkDBehQbYStYSIupsXEQpzZ0-w5ImZmtagcv9N7ckHihPwCxo1EDrqO6_W0xuLbnqsKYnPqUT9bSZA7NBtiivV4KI1ANakAkYyw9sll2t-X-0bJxKLcvcDFKag8neNZk1fDg2o4vF3klLZeJMkskulVBNt6fjSCfby9wWRp_qSTERzoc_Qj3Vmv_tnA3tFgAoiZRV0ng_I7IZ4LYcsI_6u54zibFqxxlcviLEAfwNOBSKpYyO3x-51ptKLkLsHZokoI-eElXTagauXdLhZa8HhnYaCA96SyPKt76JcRYcUbUAv1LL_2vI7IcSSmJkuk4YtyEhA6wK8fwpk8vemn9J6AHn_IN41SU8OvxH8ZPyYDtxovFy0]--></g></svg>